<?xml version="1.0" encoding="UTF-8" standalone="no"?>
<!-- Created with Inkscape (http://www.inkscape.org/) -->

<svg
   width="210mm"
   height="297mm"
   viewBox="0 0 210 297"
   version="1.1"
   id="svg1"
   inkscape:version="1.4.2 (f4327f4, 2025-05-13)"
   sodipodi:docname="dinobuzz.svg"
   xmlns:inkscape="http://www.inkscape.org/namespaces/inkscape"
   xmlns:sodipodi="http://sodipodi.sourceforge.net/DTD/sodipodi-0.dtd"
   xmlns="http://www.w3.org/2000/svg"
   xmlns:svg="http://www.w3.org/2000/svg">
  <sodipodi:namedview
     id="namedview1"
     pagecolor="#ffffff"
     bordercolor="#000000"
     borderopacity="0.25"
     inkscape:showpageshadow="2"
     inkscape:pageopacity="0.0"
     inkscape:pagecheckerboard="0"
     inkscape:deskcolor="#d1d1d1"
     inkscape:document-units="mm"
     inkscape:zoom="0.71891835"
     inkscape:cx="774.07956"
     inkscape:cy="767.12467"
     inkscape:window-width="1920"
     inkscape:window-height="1009"
     inkscape:window-x="1912"
     inkscape:window-y="-8"
     inkscape:window-maximized="1"
     inkscape:current-layer="layer1" />
  <defs
     id="defs1">
    <inkscape:path-effect
       effect="envelope"
       id="path-effect23"
       is_visible="true"
       lpeversion="1"
       yy="true"
       xx="true"
       bendpath1="m 113.16751,160.16918 c 15.15878,-10.1553 31.39155,-11.71868 49.28458,0"
       bendpath2="m 162.45209,160.16918 v 12.93603"
       bendpath3="m 113.16751,173.10521 c 18.65095,11.55834 35.19496,12.16059 49.28458,0"
       bendpath4="m 113.16751,160.16918 v 12.93603"
       bendpath1-nodetypes="cc"
       bendpath3-nodetypes="cc" />
    <inkscape:path-effect
       effect="envelope"
       id="path-effect22"
       is_visible="true"
       lpeversion="1"
       yy="false"
       xx="false"
       bendpath1="M -1.6041809,27.995486 A 27.029475,15.738683 0 0 1 -28.633657,43.734167 27.029475,15.738683 0 0 1 -55.663135,27.995486 27.029475,15.738683 0 0 1 -28.633657,12.256804 27.029475,15.738683 0 0 1 -1.6041809,27.995486 Z"
       bendpath2="M -1.6041809,27.995486 A 27.029475,15.738683 0 0 1 -28.633657,43.734167 27.029475,15.738683 0 0 1 -55.663135,27.995486 27.029475,15.738683 0 0 1 -28.633657,12.256804 27.029475,15.738683 0 0 1 -1.6041809,27.995486 Z"
       bendpath3="M -1.6041809,27.995486 A 27.029475,15.738683 0 0 1 -28.633657,43.734167 27.029475,15.738683 0 0 1 -55.663135,27.995486 27.029475,15.738683 0 0 1 -28.633657,12.256804 27.029475,15.738683 0 0 1 -1.6041809,27.995486 Z"
       bendpath4="M -1.6041809,27.995486 A 27.029475,15.738683 0 0 1 -28.633657,43.734167 27.029475,15.738683 0 0 1 -55.663135,27.995486 27.029475,15.738683 0 0 1 -28.633657,12.256804 27.029475,15.738683 0 0 1 -1.6041809,27.995486 Z"
       bendpath1-nodetypes="cc"
       bendpath2-nodetypes="cc"
       bendpath3-nodetypes="cc"
       bendpath4-nodetypes="cc" />
    <inkscape:path-effect
       effect="envelope"
       id="path-effect21"
       is_visible="true"
       lpeversion="1"
       yy="true"
       xx="true"
       bendpath1="m 113.16751,160.16918 h 49.28458"
       bendpath2="m 162.45209,160.16918 v 12.93603"
       bendpath3="m 113.16751,173.10521 h 49.28458"
       bendpath4="m 113.16751,160.16918 v 12.93603" />
    <inkscape:path-effect
       effect="envelope"
       id="path-effect20"
       is_visible="true"
       lpeversion="1"
       yy="false"
       xx="false"
       bendpath1="M -9.8022436,19.652663 A 28.618909,16.664176 0 0 1 -38.421154,36.316838 28.618909,16.664176 0 0 1 -67.040066,19.652663 28.618909,16.664176 0 0 1 -38.421154,2.9884881 28.618909,16.664176 0 0 1 -9.8022436,19.652663 Z"
       bendpath2="M -9.8022436,19.652663 A 28.618909,16.664176 0 0 1 -38.421154,36.316838 28.618909,16.664176 0 0 1 -67.040066,19.652663 28.618909,16.664176 0 0 1 -38.421154,2.9884881 28.618909,16.664176 0 0 1 -9.8022436,19.652663 Z"
       bendpath3="M -9.8022436,19.652663 A 28.618909,16.664176 0 0 1 -38.421154,36.316838 28.618909,16.664176 0 0 1 -67.040066,19.652663 28.618909,16.664176 0 0 1 -38.421154,2.9884881 28.618909,16.664176 0 0 1 -9.8022436,19.652663 Z"
       bendpath4="M -9.8022436,19.652663 A 28.618909,16.664176 0 0 1 -38.421154,36.316838 28.618909,16.664176 0 0 1 -67.040066,19.652663 28.618909,16.664176 0 0 1 -38.421154,2.9884881 28.618909,16.664176 0 0 1 -9.8022436,19.652663 Z" />
    <inkscape:path-effect
       effect="skeletal"
       id="path-effect19"
       is_visible="true"
       lpeversion="1"
       pattern="M 0,0 H 1"
       copytype="single_stretched"
       prop_scale="1"
       scale_y_rel="false"
       spacing="0"
       normal_offset="0"
       tang_offset="0"
       prop_units="false"
       vertical_pattern="false"
       hide_knot="false"
       fuse_tolerance="0" />
    <inkscape:path-effect
       effect="envelope"
       id="path-effect18"
       is_visible="true"
       lpeversion="1"
       yy="true"
       xx="true"
       bendpath1="m 113.16751,160.16918 h 49.28458"
       bendpath2="m 162.45209,160.16918 v 12.93603"
       bendpath3="m 113.16751,173.10521 h 49.28458"
       bendpath4="m 113.16751,160.16918 v 12.93603" />
    <inkscape:path-effect
       effect="perspective-envelope"
       up_left_point="112.67,160.16918"
       up_right_point="162.45209,160.16918"
       down_left_point="113.16751,173.10521"
       down_right_point="162.45209,173.10521"
       id="path-effect17"
       is_visible="true"
       lpeversion="1"
       deform_type="envelope_deformation"
       horizontal_mirror="false"
       vertical_mirror="false"
       overflow_perspective="false" />
    <inkscape:perspective
       sodipodi:type="inkscape:persp3d"
       inkscape:vp_x="-3.6802973 : 113.9052 : 1"
       inkscape:vp_y="0 : 1000 : 0"
       inkscape:vp_z="210 : 148.5 : 1"
       inkscape:persp3d-origin="105 : 99 : 1"
       id="perspective7" />
  </defs>
  <g
     inkscape:label="Calque 1"
     inkscape:groupmode="layer"
     id="layer1">
    <rect
       style="opacity:1;fill:#c8f2f3;fill-opacity:1;stroke-width:0.264583"
       id="rect25"
       width="147.2119"
       height="121.44981"
       x="51.156136"
       y="127.70632"
       inkscape:export-filename="rect25.png"
       inkscape:export-xdpi="96"
       inkscape:export-ydpi="96" />
    <rect
       style="opacity:1;fill:#008b4a;fill-opacity:1;stroke-width:0.264583"
       id="rect27"
       width="147.23683"
       height="31.857731"
       x="51.217762"
       y="217.1916" />
    <path
       style="opacity:1;fill:#97733e;fill-opacity:1;stroke-width:0.264583"
       d="m 51.156134,181.80669 42.691449,-43.42751 30.914497,34.96282 28.70632,-18.76951 44.89963,26.86617 z"
       id="path26" />
    <rect
       style="opacity:1;fill:#97733e;fill-opacity:1;stroke-width:0.264583"
       id="rect26"
       width="147.30389"
       height="36.572975"
       x="51.216572"
       y="181.14029" />
    <path
       style="fill:#000000;stroke-width:0.264583"
       d="m 88.327136,163.4052 0.736061,18.76952"
       id="path13" />
    <path
       style="fill:#243f26;fill-opacity:1;stroke-width:0.264583"
       d="m 101.20818,213.08922 1.10408,20.60966 9.20075,-1.10409 -1.84015,-20.60966 c 13.7384,4.72099 24.16656,4.4766 32.01859,0.36803 l 1.84014,19.50558 12.88105,-1.10409 -5.15242,-18.76952 c 4.9201,-4.104 5.10468,-2.98154 7.36059,-8.09666 9.97861,3.51578 24.34598,-2.67351 25.40172,-8.97049 -8.10792,0.47764 -18.75832,13.91479 -25.40172,-5.01464 -10.46065,-13.7752 -36.74505,-16.53298 -47.47583,-3.31227 0,0 1.46583,-9.92673 -4.95532,-22.5053 -5.75125,-11.2663 -16.193313,-22.44981 -16.193313,-22.44981 l -6.992565,18.76952 c 0,0 6.209047,3.99904 9.568776,11.04089 5.124904,10.74158 3.283861,11.28029 4.955321,19.19303 1.64803,7.80182 3.680301,22.44982 3.680301,22.44982 z"
       id="path14"
       sodipodi:nodetypes="ccccccccccccsccssc" />
    <path
       style="fill:#243f26;fill-opacity:1;stroke-width:0.264583"
       d="m 83.796095,160.30557 c 0,0 -9.186703,2.84183 -13.011814,0.78072 -2.907891,-1.56688 -4.965222,-5.2847 -4.944491,-8.58781 0.01709,-2.72243 2.01751,-5.35144 4.16378,-7.02638 3.353697,-2.61721 8.067326,-3.38306 8.067326,-3.38306 l 3.903545,-3.64331 -0.260236,-3.38308 4.94449,-4.68425 4.684253,13.79252 z"
       id="path15"
       sodipodi:nodetypes="cssscccccc" />
    <circle
       style="fill:#ffffff;fill-opacity:1;stroke-width:0.264583"
       id="path16"
       cx="80.282898"
       cy="146.38293"
       r="1.1710634" />
    <path
       style="font-weight:bold;font-size:17.4296px;-inkscape-font-specification:'sans-serif Bold';fill:#ffffff;fill-opacity:1;stroke-width:1.45247"
       d="m 124.56968,169.51923 c -0.004,0.87162 -0.14918,1.71543 -0.44922,2.47844 -0.2955,0.7669 -0.70901,1.41856 -1.22776,1.89107 -0.60502,0.56185 -1.25515,0.8876 -1.92481,0.96295 -0.6711,0.0783 -1.43413,-0.0878 -2.33709,-0.44565 -1.79136,-0.70998 -3.57606,-1.33433 -5.38007,-1.75431 1.57472,-4.19714 2.27381,-8.49591 -0.28141,-12.6051 1.53165,-0.51618 3.06641,-1.20569 4.61238,-1.95731 0.97992,-0.47641 1.6896,-0.76638 2.20898,-0.85142 0.51155,-0.0855 1.07512,0.0126 1.67117,0.31142 0.61834,0.31513 1.13233,0.87818 1.50351,1.61493 0.37396,0.72243 0.59376,1.54824 0.65613,2.40831 0.0718,0.99026 -0.0806,1.80082 -0.39876,2.45448 -0.31944,0.64868 -0.79028,1.12486 -1.39404,1.45647 1e-5,-9.6e-4 -7.8e-4,0.0826 -7.7e-4,0.0816 0.84515,0.17104 1.50574,0.57329 1.99429,1.22542 0.48955,0.64596 0.75227,1.54112 0.74747,2.72869 0,0 0,-1e-5 0,-1e-5 z m -4.24036,-6.50292 c -0.003,-0.27435 -0.0658,-0.55028 -0.18833,-0.82204 -0.11724,-0.27361 -0.31823,-0.46102 -0.5964,-0.55308 -0.24968,-0.082 -0.55052,-0.0884 -0.90958,-0.0266 -0.38527,0.0576 -0.81864,0.13548 -1.49827,0.25077 -0.10317,0.0175 -0.20646,0.0347 -0.30989,0.0516 0.0608,1.02256 -0.0447,2.13746 -0.10222,3.02069 0.18309,-0.006 0.36556,-0.0132 0.54742,-0.0202 0.55067,-0.0214 1.01752,-0.0516 1.39897,-0.0889 0.38237,-0.0374 0.68332,-0.11716 0.90477,-0.24215 0.31083,-0.16962 0.51448,-0.38302 0.61162,-0.64108 0.097,-0.26434 0.14629,-0.57363 0.14191,-0.92896 0,0 0,-6e-5 0,-6e-5 z m 0.82748,6.11424 c -0.009,-0.50065 -0.1009,-0.87589 -0.26995,-1.13477 -0.16408,-0.2664 -0.44079,-0.46333 -0.83384,-0.59359 -0.26835,-0.0892 -0.63683,-0.1396 -1.11096,-0.15329 -0.47361,-0.014 -0.97294,-0.024 -1.49767,-0.0298 -0.25645,-0.003 -0.51406,-0.005 -0.77301,-0.008 0.0316,1.08921 0.17683,2.19435 0.1879,3.42059 0.0822,0.01 0.16438,0.0197 0.24642,0.0298 0.8228,0.10132 1.74443,0.23387 2.0222,0.27154 0.40482,0.0549 0.77591,0.0178 1.12112,-0.12229 0.34969,-0.13907 0.58959,-0.36055 0.7177,-0.65349 0.1337,-0.2993 0.19701,-0.64579 0.19007,-1.0282 0,0 2e-5,0.001 2e-5,0.001 z m 16.43495,0.14021 c 0.0116,1.71679 -0.15076,3.48246 -0.51515,5.14577 -0.21598,0.98409 -0.50486,1.93597 -0.87412,2.79184 -1.02285,2.37079 -2.54127,3.64471 -4.521,3.08763 -1.96955,-0.55421 -3.11444,-2.51411 -3.82826,-4.78346 -0.66596,-2.13253 -1.05299,-4.73104 -1.05281,-6.80319 1.9e-4,-2.20882 0.28341,-8.40011 -1.26226,-14.492 1.10381,-0.47929 2.21721,-0.91888 3.35171,-1.3026 1.2935,6.9554 1.10931,13.21535 1.10681,15.72015 -0.001,1.35466 0.15825,2.57253 0.48439,3.45681 0.33078,0.89687 0.88022,1.48659 1.68688,1.60808 0.79659,0.11997 1.38007,-0.28731 1.75867,-1.13583 0.38059,-0.8402 0.56722,-2.1524 0.56422,-3.69961 -0.005,-2.77398 0.0709,-9.4169 -0.65119,-17.18908 0.96892,-0.15192 1.94201,-0.24854 2.92296,-0.28533 0.20354,-0.007 0.40696,-0.0124 0.6103,-0.0147 0.20615,7.68813 0.20185,15.37941 0.21885,17.8955 z m 13.1969,8.53317 c -3.53709,1.51417 -7.05334,2.55193 -10.85055,2.66028 -0.0974,-2.69826 -0.15889,-4.92106 -0.19963,-6.73744 1.43075,-4.6579 4.17383,-10.06588 5.97081,-14.17869 -1.93591,-0.33685 -3.83101,-0.58297 -5.76548,-0.69946 0.0207,-1.95681 0.0586,-4.39889 0.13225,-7.35435 3.63212,0.35741 7.02636,1.47992 10.42855,2.98169 -0.55078,2.29329 -0.81435,4.20318 -0.95182,5.76132 -1.79136,3.37586 -4.72481,8.6447 -5.99899,13.09171 2.14224,-0.21893 4.2077,-0.57818 6.35834,-1.0095 0.12592,1.48599 0.36445,3.30871 0.87652,5.48444 z m 11.34248,-5.07537 c -3.15048,0.99405 -6.68815,2.96485 -9.96948,4.46644 -0.51721,-1.97126 -0.7559,-3.64125 -0.8799,-5.01903 1.05842,-3.32689 4.83067,-8.51357 6.14693,-10.24167 -1.98512,-0.33647 -3.97031,-0.77443 -5.89308,-1.19713 0.13573,-1.44428 0.41116,-3.20687 1.02254,-5.31501 3.21407,1.53473 6.52893,3.35183 9.56987,4.43263 -0.5553,0.88631 -0.65785,1.75044 -0.62598,2.56636 -0.54742,0.64917 -5.53011,6.92588 -6.34963,8.81495 2.1638,-0.42866 4.4079,-0.81045 6.76407,-0.97046 -0.0986,0.81608 -0.12814,1.66762 0.21466,2.46292 z"
       id="text16"
       aria-label="BUZZ"
       transform="matrix(0.76060184,0,0,0.76060184,28.904397,69.251801)"
       inkscape:path-effect="#path-effect23"
       inkscape:original-d="m 124.00995,168.96058 q 0,0.91913 -0.37447,1.64253 -0.36595,0.7234 -1.01275,1.19999 -0.74893,0.56169 -1.65105,0.79999 -0.89361,0.23829 -2.27231,0.23829 h -5.53186 v -12.6722 h 4.9191 q 1.53189,0 2.23827,0.10213 0.71489,0.10212 1.41275,0.45106 0.7234,0.36595 1.07233,0.98722 0.35744,0.61276 0.35744,1.40424 0,0.91914 -0.4851,1.62551 -0.4851,0.69787 -1.3702,1.08935 v 0.0681 q 1.24254,0.2468 1.96594,1.02126 0.73191,0.77446 0.73191,2.04254 z m -4.18719,-5.20846 q 0,-0.31489 -0.1617,-0.62978 -0.15319,-0.31489 -0.55319,-0.46808 -0.35744,-0.13617 -0.89361,-0.14468 -0.52765,-0.017 -1.48934,-0.017 h -0.30638 v 2.68082 h 0.51063 q 0.77446,0 1.31914,-0.0255 0.54467,-0.0255 0.85956,-0.17021 0.44255,-0.19574 0.57872,-0.50212 0.13617,-0.31489 0.13617,-0.7234 z m 0.79999,5.15739 q 0,-0.60425 -0.2383,-0.92765 -0.22978,-0.33191 -0.79148,-0.49361 -0.38297,-0.11064 -1.0553,-0.11915 -0.67234,-0.009 -1.40424,-0.009 h -0.71489 v 3.15742 h 0.23829 q 1.37871,0 1.97445,-0.009 0.59574,-0.009 1.09786,-0.22128 0.51063,-0.21276 0.69787,-0.5617 0.19574,-0.35744 0.19574,-0.81701 z m 16.91897,-0.65531 q 0,2.34891 -1.42978,3.59996 -1.42977,1.25105 -4.21272,1.25105 -2.78294,0 -4.21272,-1.25105 -1.42126,-1.25105 -1.42126,-3.59145 v -8.09353 h 3.28507 v 7.9063 q 0,1.31913 0.55319,1.96594 0.55318,0.6468 1.79572,0.6468 1.22552,0 1.78722,-0.62127 0.57021,-0.62127 0.57021,-1.99147 v -7.9063 h 3.28507 z m 12.85092,4.58718 h -10.64669 v -2.37444 l 6.31482,-7.84672 h -6.00844 v -2.45104 h 9.99989 v 2.417 l -6.30631,7.80417 h 6.64673 z m 12.05945,0 h -10.6467 v -2.37444 l 6.31483,-7.84672 h -6.00845 v -2.45104 h 9.9999 v 2.417 l -6.30632,7.80417 h 6.64674 z" />
    <path
       style="opacity:1;fill:#a01d1d;fill-opacity:1;stroke-width:0.433734"
       d="m 68.906412,158.12145 c -1.539323,-0.82585 -0.47766,-2.6688 2.145149,-2.04058"
       id="path25"
       sodipodi:nodetypes="cc" />
  </g>
</svg>
